<svg xmlns="http://www.w3.org/2000/svg" viewBox="0 0 24 24" width="24" height="24">
	<defs>
		<linearGradient id="grd1" gradientUnits="userSpaceOnUse"  x1="-0.81" y1="5.786" x2="23.079" y2="16.926">
			<stop offset="0" stop-color="#ffffff" stop-opacity="0.2" />
			<stop offset="1" stop-color="#ffffff" stop-opacity="0" />
		</linearGradient>
	</defs>
	<style>
		tspan { white-space:pre }
		.shp0 { fill: #e22090 } 
		.shp1 { fill: #e372b3 } 
		.shp2 { fill: #f0c4de } 
		.shp3 { opacity: 0.2;fill: #ffffff } 
		.shp4 { fill: #ffffff } 
		.shp5 { opacity: 0.102;fill: #000000 } 
		.shp6 { fill: #e6e6e6 } 
		.shp7 { opacity: 0.102;fill: #e22090 } 
		.shp8 { fill: url(#grd1) } 
	</style>
	<g id="Layer">
		<path id="Layer" class="shp0" d="M22.37 9.5C23.34 8.76 24 7.28 24 5.5C24 2.98 22.68 1 21 1L3 1C1.32 1 0 2.98 0 5.5C0 7.28 0.66 8.76 1.63 9.5C0.66 10.24 0 11.72 0 13.5C0 15.45 0.81 17.12 2 17.74L2 21C2 22.1 2.9 23 4 23L11.5 23C11.63 23 11.76 22.95 11.85 22.85L15.85 18.85C15.95 18.76 16 18.63 16 18.5L16 18L21 18C22.68 18 24 16.02 24 13.5C24 11.72 23.34 10.24 22.37 9.5Z" />
		<path id="Layer" class="shp1" d="M23 5.5C23 7.4 22.08 9 21 9C19.92 9 19 7.4 19 5.5C19 3.6 19.92 2 21 2C22.08 2 23 3.6 23 5.5Z" />
		<path id="Layer" class="shp0" d="M21 7C21.58 7 22 6.37 22 5.5C22 4.63 21.58 4 21 4C20.42 4 20 4.63 20 5.5C20 6.37 20.42 7 21 7Z" />
		<path id="Layer" class="shp2" d="M1 5.5C1 3.6 1.92 2 3 2L19.12 2C18.44 2.82 18 4.06 18 5.5C18 6.94 18.44 8.18 19.12 9L3 9C1.92 9 1 7.4 1 5.5Z" />
		<path id="Layer" class="shp3" d="M1.5 7C1.5 5.1 2.42 3.5 3.5 3.5L18.31 3.5C18.5 2.91 18.78 2.4 19.12 2L3 2C1.92 2 1 3.6 1 5.5C1 6.44 1.23 7.31 1.59 7.95C1.54 7.64 1.5 7.33 1.5 7Z" />
		<path id="Layer" class="shp2" d="M1 13.5C1 11.6 1.92 10 3 10L3.52 10C2.89 11.05 2 13.12 2 16.5L2 16.51C1.4 15.89 1 14.74 1 13.5Z" />
		<path id="Layer" class="shp1" d="M21 17C19.92 17 19 15.4 19 13.5C19 11.6 19.92 10 21 10C22.08 10 23 11.6 23 13.5C23 15.4 22.08 17 21 17Z" />
		<path id="Layer" class="shp4" d="M3 21L3 16.5C3 12.52 4.32 10.52 4.73 10L16.35 10C15.72 10.97 15 12.86 15 16.5L15 18L13 18C11.9 18 11 18.9 11 20L11 22L4 22C3.45 22 3 21.55 3 21Z" />
		<path id="Layer" class="shp5" d="M15.84 11C16.01 10.59 16.18 10.26 16.35 10L4.73 10C4.6 10.17 4.37 10.51 4.12 11L15.84 11Z" />
		<path id="Layer" class="shp6" d="M14.29 19L12 21.29L12 20C12 19.45 12.45 19 13 19L14.29 19Z" />
		<path id="Layer" class="shp3" d="M12.21 20.21C12.21 19.66 12.66 19.21 13.21 19.21L14.09 19.21L14.29 19L13 19C12.45 19 12 19.45 12 20L12 21.29L12.21 21.09L12.21 20.21Z" />
		<path id="Layer" class="shp2" d="M16 16.5C16 11.65 17.33 10.26 17.65 10L19.12 10C18.44 10.82 18 12.06 18 13.5C18 14.94 18.44 16.18 19.12 17L16 17L16 16.5Z" />
		<path id="Layer" class="shp7" d="M16 16.5L16 16.5L16 17L19.12 17C18.99 16.85 18.89 16.67 18.78 16.5L16 16.5Z" />
		<path id="Layer" class="shp0" d="M21 12C20.42 12 20 12.63 20 13.5C20 14.37 20.42 15 21 15C21.58 15 22 14.37 22 13.5C22 12.63 21.58 12 21 12Z" />
		<path id="Layer" class="shp8" d="M22.37 9.5C23.34 8.76 24 7.28 24 5.5C24 2.98 22.68 1 21 1L3 1C1.32 1 0 2.98 0 5.5C0 7.28 0.66 8.76 1.63 9.5C0.66 10.24 0 11.72 0 13.5C0 15.45 0.81 17.12 2 17.74L2 21C2 22.1 2.9 23 4 23L11.5 23C11.63 23 11.76 22.95 11.85 22.85L15.85 18.85C15.95 18.76 16 18.63 16 18.5L16 18L21 18C22.68 18 24 16.02 24 13.5C24 11.72 23.34 10.24 22.37 9.5Z" />
	</g>
	<g id="Layer">
	</g>
	<g id="Layer">
	</g>
	<g id="Layer">
	</g>
	<g id="Layer">
	</g>
	<g id="Layer">
	</g>
	<g id="Layer">
	</g>
	<g id="Layer">
	</g>
	<g id="Layer">
	</g>
	<g id="Layer">
	</g>
	<g id="Layer">
	</g>
	<g id="Layer">
	</g>
	<g id="Layer">
	</g>
	<g id="Layer">
	</g>
	<g id="Layer">
	</g>
	<g id="Layer">
	</g>
</svg>